<?xml version="1.0" standalone="no"?>
<!DOCTYPE svg PUBLIC "-//W3C//DTD SVG 20010904//EN"
 "http://www.w3.org/TR/2001/REC-SVG-20010904/DTD/svg10.dtd">
<svg version="1.0" xmlns="http://www.w3.org/2000/svg"
 width="500.000000pt" height="500.000000pt" viewBox="0 0 500.000000 500.000000"
 preserveAspectRatio="xMidYMid meet">
<metadata>
Created by potrace 1.14, written by Peter Selinger 2001-2017
</metadata>
<g transform="translate(0.000000,500.000000) scale(0.100000,-0.100000)"
fill="#000000" stroke="none">
<path d="M2140 4971 c-334 -52 -683 -177 -908 -326 -30 -19 -55 -35 -57 -35
-6 0 -63 -40 -165 -116 -139 -103 -249 -205 -385 -359 -65 -73 -185 -229 -185
-240 0 -4 -11 -21 -24 -38 -112 -148 -271 -508 -323 -727 -33 -142 -42 -191
-63 -335 -14 -104 -5 -588 14 -690 64 -347 161 -605 339 -905 28 -47 55 -89
59 -95 4 -5 38 -50 75 -100 78 -106 78 -106 213 -247 259 -272 623 -503 980
-622 75 -24 147 -47 160 -50 14 -2 57 -11 95 -20 39 -8 84 -17 100 -20 17 -3
41 -7 55 -10 92 -21 520 -29 650 -12 36 5 76 10 90 11 14 1 34 5 45 8 11 3 36
8 55 11 36 6 69 12 108 21 12 3 32 7 44 10 47 10 228 69 310 100 178 69 380
180 528 292 207 156 399 337 508 478 34 44 66 85 72 92 30 36 148 233 196 327
141 274 236 611 260 916 12 152 7 454 -9 525 -3 11 -8 43 -11 70 -11 82 -56
273 -88 375 -139 440 -413 848 -768 1146 -370 311 -799 503 -1270 570 -25 3
-166 8 -315 9 -222 3 -291 0 -385 -14z"/>
</g>
</svg>
